<?xml version="1.0" encoding="UTF-8" standalone="no"?>
<!-- Created with Inkscape (http://www.inkscape.org/) -->

<svg
   width="512"
   height="512"
   viewBox="0 0 135.46666 135.46666"
   version="1.1"
   id="svg1"
   xml:space="preserve"
   inkscape:version="1.4.2 (ebf0e940d0, 2025-05-08)"
   sodipodi:docname="fluentflame.svg"
   inkscape:export-filename="256x256.png"
   inkscape:export-xdpi="48"
   inkscape:export-ydpi="48"
   xmlns:inkscape="http://www.inkscape.org/namespaces/inkscape"
   xmlns:sodipodi="http://sodipodi.sourceforge.net/DTD/sodipodi-0.dtd"
   xmlns:xlink="http://www.w3.org/1999/xlink"
   xmlns="http://www.w3.org/2000/svg"
   xmlns:svg="http://www.w3.org/2000/svg"><sodipodi:namedview
     id="namedview1"
     pagecolor="#ffffff"
     bordercolor="#000000"
     borderopacity="0.25"
     inkscape:showpageshadow="2"
     inkscape:pageopacity="0.0"
     inkscape:pagecheckerboard="0"
     inkscape:deskcolor="#d1d1d1"
     inkscape:document-units="mm"
     inkscape:zoom="1.4142136"
     inkscape:cx="48.436813"
     inkscape:cy="186.32263"
     inkscape:window-width="2560"
     inkscape:window-height="1364"
     inkscape:window-x="0"
     inkscape:window-y="0"
     inkscape:window-maximized="1"
     inkscape:current-layer="layer2"
     inkscape:export-bgcolor="#00000000" /><defs
     id="defs1"><linearGradient
       id="linearGradient15"
       inkscape:collect="always"><stop
         style="stop-color:#e85e5e;stop-opacity:1;"
         offset="0"
         id="stop15" /><stop
         style="stop-color:#ffa947;stop-opacity:1;"
         offset="1"
         id="stop16" /></linearGradient><linearGradient
       id="linearGradient13"
       inkscape:collect="always"><stop
         style="stop-color:#d78c15;stop-opacity:1;"
         offset="0"
         id="stop13" /><stop
         style="stop-color:#ffde44;stop-opacity:1;"
         offset="1"
         id="stop14" /></linearGradient><linearGradient
       id="linearGradient11"
       inkscape:collect="always"><stop
         style="stop-color:#ead635;stop-opacity:1;"
         offset="0"
         id="stop11" /><stop
         style="stop-color:#1181f7;stop-opacity:1;"
         offset="1"
         id="stop12" /></linearGradient><rect
       x="145.00382"
       y="199.98157"
       width="47.41831"
       height="15.118882"
       id="rect2" /><rect
       x="162.87159"
       y="205.47934"
       width="237.09155"
       height="227.47044"
       id="rect1" /><rect
       x="162.87159"
       y="205.47934"
       width="237.09155"
       height="227.47044"
       id="rect3" /><filter
       style="color-interpolation-filters:sRGB;"
       inkscape:label="Blur"
       id="filter3"
       x="-0.16969697"
       y="-0.24005358"
       width="1.3393939"
       height="1.4801072"><feGaussianBlur
         stdDeviation="10 10"
         result="fbSourceGraphic"
         id="feGaussianBlur3" /><feColorMatrix
         result="fbSourceGraphicAlpha"
         in="fbSourceGraphic"
         values="0 0 0 -1 0 0 0 0 -1 0 0 0 0 -1 0 0 0 0 1 0"
         id="feColorMatrix4" /><feGaussianBlur
         id="feGaussianBlur4"
         stdDeviation="2 2"
         result="fbSourceGraphic"
         in="fbSourceGraphic" /><feColorMatrix
         result="fbSourceGraphicAlpha"
         in="fbSourceGraphic"
         values="0 0 0 -1 0 0 0 0 -1 0 0 0 0 -1 0 0 0 0 1 0"
         id="feColorMatrix5" /><feGaussianBlur
         id="feGaussianBlur5"
         stdDeviation="2 2"
         result="blur"
         in="fbSourceGraphic" /></filter><filter
       style="color-interpolation-filters:sRGB;"
       inkscape:label="Blur"
       id="filter6"
       x="-0.069274467"
       y="-0.069274468"
       width="1.1385489"
       height="1.1385489"><feGaussianBlur
         stdDeviation="2 2"
         result="blur"
         id="feGaussianBlur6" /></filter><filter
       style="color-interpolation-filters:sRGB;"
       inkscape:label="Blur"
       id="filter7"
       x="-0.069274467"
       y="-0.069274468"
       width="1.1385489"
       height="1.1385489"><feGaussianBlur
         stdDeviation="2 2"
         result="blur"
         id="feGaussianBlur7" /></filter><filter
       style="color-interpolation-filters:sRGB;"
       inkscape:label="Blur"
       id="filter8"
       x="-0.069274467"
       y="-0.069274468"
       width="1.1385489"
       height="1.1385489"><feGaussianBlur
         stdDeviation="2 2"
         result="blur"
         id="feGaussianBlur8" /></filter><rect
       x="162.87159"
       y="205.47934"
       width="237.09155"
       height="227.47044"
       id="rect8" /><linearGradient
       inkscape:collect="always"
       xlink:href="#linearGradient11"
       id="linearGradient12"
       x1="75.13752"
       y1="25.545246"
       x2="0.41669282"
       y2="106.33262"
       gradientUnits="userSpaceOnUse" /><filter
       style="color-interpolation-filters:sRGB;"
       inkscape:label="Blur"
       id="filter12"
       x="-0.035506241"
       y="-0.051440054"
       width="1.0710125"
       height="1.1028801"><feGaussianBlur
         stdDeviation="3 3"
         result="blur"
         id="feGaussianBlur12" /></filter><linearGradient
       inkscape:collect="always"
       xlink:href="#linearGradient13"
       id="linearGradient14"
       x1="45.151566"
       y1="55.005894"
       x2="99.457527"
       y2="-1.4544052"
       gradientUnits="userSpaceOnUse" /><linearGradient
       inkscape:collect="always"
       xlink:href="#linearGradient15"
       id="linearGradient16"
       x1="40.003304"
       y1="61.695362"
       x2="99.10463"
       y2="11.355287"
       gradientUnits="userSpaceOnUse" /><rect
       x="162.8716"
       y="205.47934"
       width="237.09155"
       height="227.47044"
       id="rect1-3" /><rect
       x="162.8716"
       y="205.47934"
       width="237.09155"
       height="227.47044"
       id="rect1-5" /><filter
       style="color-interpolation-filters:sRGB;"
       inkscape:label="Blur"
       id="filter1"
       x="-0.077962578"
       y="-0.053571516"
       width="1.1559252"
       height="1.107143"><feGaussianBlur
         stdDeviation="3 3"
         result="blur"
         id="feGaussianBlur1" /></filter><rect
       x="162.8716"
       y="205.47934"
       width="237.09155"
       height="227.47044"
       id="rect1-2" /><rect
       x="162.8716"
       y="205.47934"
       width="237.09155"
       height="227.47044"
       id="rect5" /><rect
       x="162.87159"
       y="205.47934"
       width="237.09155"
       height="227.47044"
       id="rect6" /><rect
       x="162.8716"
       y="205.47934"
       width="237.09155"
       height="227.47044"
       id="rect17" /><rect
       x="162.87159"
       y="205.47934"
       width="237.09155"
       height="227.47044"
       id="rect18" /><rect
       x="162.8716"
       y="205.47934"
       width="237.09155"
       height="227.47044"
       id="rect19" /><rect
       x="162.87159"
       y="205.47934"
       width="237.09155"
       height="227.47044"
       id="rect20" /></defs><g
     inkscape:label="Bg"
     inkscape:groupmode="layer"
     id="layer1"
     sodipodi:insensitive="true"><g
       id="g11"><path
         sodipodi:type="star"
         style="fill:#1b1b1b;fill-opacity:0.283372;stroke-width:0.264583;filter:url(#filter7)"
         id="path7"
         inkscape:flatsided="false"
         sodipodi:sides="3"
         sodipodi:cx="63.457783"
         sodipodi:cy="37.456455"
         sodipodi:r1="41.415569"
         sodipodi:r2="20.707785"
         sodipodi:arg1="0.26179939"
         sodipodi:arg2="1.3089969"
         inkscape:rounded="0"
         inkscape:randomized="0"
         d="M 103.46215,48.175593 68.817353,57.458639 34.172553,66.741685 43.455599,32.096887 52.738645,-2.5479128 78.100397,22.81384 Z"
         inkscape:transform-center-x="-16.123518"
         inkscape:transform-center-y="-3.6431845e-06"
         transform="matrix(1.5041814,-0.40304421,0.40304421,1.5041814,-42.319125,37.134501)"
         inkscape:label="t3_blur" /><path
         sodipodi:type="star"
         style="fill:url(#linearGradient16);fill-opacity:1;stroke-width:0.264583"
         id="path2-7-9"
         inkscape:flatsided="false"
         sodipodi:sides="3"
         sodipodi:cx="63.457783"
         sodipodi:cy="37.456455"
         sodipodi:r1="41.415569"
         sodipodi:r2="20.707785"
         sodipodi:arg1="0.26179939"
         sodipodi:arg2="1.3089969"
         inkscape:rounded="0"
         inkscape:randomized="0"
         d="M 103.46215,48.175593 68.817353,57.458639 34.172553,66.741685 43.455599,32.096887 52.738645,-2.5479128 78.100397,22.81384 Z"
         inkscape:transform-center-x="-16.123518"
         inkscape:transform-center-y="-3.6431845e-06"
         transform="matrix(1.5041814,-0.40304421,0.40304421,1.5041814,-42.319125,37.1345)"
         inkscape:label="t3" /></g><g
       id="g10"><path
         sodipodi:type="star"
         style="fill:#1b1b1b;fill-opacity:0.283372;stroke-width:0.264583;filter:url(#filter8)"
         id="path8"
         inkscape:flatsided="false"
         sodipodi:sides="3"
         sodipodi:cx="63.457783"
         sodipodi:cy="37.456455"
         sodipodi:r1="41.415569"
         sodipodi:r2="20.707785"
         sodipodi:arg1="0.26179939"
         sodipodi:arg2="1.3089969"
         inkscape:rounded="0"
         inkscape:randomized="0"
         d="M 103.46215,48.175593 68.817353,57.458639 34.172553,66.741685 43.455599,32.096887 52.738645,-2.5479128 78.100397,22.81384 Z"
         inkscape:transform-center-x="-6.9723539"
         inkscape:transform-center-y="-6.9723579"
         transform="matrix(1.3009174,0,0,1.3009174,-27.029246,35.456103)"
         inkscape:label="t2_blur" /><path
         sodipodi:type="star"
         style="fill:url(#linearGradient14);fill-opacity:1;stroke-width:0.264583"
         id="path2-7"
         inkscape:flatsided="false"
         sodipodi:sides="3"
         sodipodi:cx="63.457783"
         sodipodi:cy="37.456455"
         sodipodi:r1="41.415569"
         sodipodi:r2="20.707785"
         sodipodi:arg1="0.26179939"
         sodipodi:arg2="1.3089969"
         inkscape:rounded="0"
         inkscape:randomized="0"
         d="M 103.46215,48.175593 68.817353,57.458639 34.172553,66.741685 43.455599,32.096887 52.738645,-2.5479128 78.100397,22.81384 Z"
         inkscape:transform-center-x="-6.9723539"
         inkscape:transform-center-y="-6.9723579"
         transform="matrix(1.3009174,0,0,1.3009174,-27.029246,35.456104)"
         inkscape:label="t2" /></g><g
       id="g9"><path
         sodipodi:type="star"
         style="fill:#1b1b1b;fill-opacity:0.283372;stroke-width:0.264583;filter:url(#filter6)"
         id="path5"
         inkscape:flatsided="false"
         sodipodi:sides="3"
         sodipodi:cx="63.457783"
         sodipodi:cy="37.456455"
         sodipodi:r1="41.415569"
         sodipodi:r2="20.707785"
         sodipodi:arg1="0.26179939"
         sodipodi:arg2="1.3089969"
         inkscape:rounded="0"
         inkscape:randomized="0"
         d="M 103.46215,48.175593 68.817353,57.458639 34.172553,66.741685 43.455599,32.096887 52.738645,-2.5479128 78.100397,22.81384 Z"
         inkscape:transform-center-x="-2.281714e-06"
         inkscape:transform-center-y="-10.759119"
         transform="matrix(1.0037301,0.26894867,-0.26894867,1.0037301,-11.723276,36.986881)"
         inkscape:label="t1_blur" /><path
         sodipodi:type="star"
         style="fill:url(#linearGradient12);fill-opacity:1;stroke-width:0.264583"
         id="path2"
         inkscape:flatsided="false"
         sodipodi:sides="3"
         sodipodi:cx="63.457783"
         sodipodi:cy="37.456455"
         sodipodi:r1="41.415569"
         sodipodi:r2="20.707785"
         sodipodi:arg1="0.26179939"
         sodipodi:arg2="1.3089969"
         inkscape:rounded="0"
         inkscape:randomized="0"
         d="M 103.46215,48.175593 68.817353,57.458639 34.172553,66.741685 43.455599,32.096887 52.738645,-2.5479128 78.100397,22.81384 Z"
         inkscape:transform-center-x="-2.2983446e-06"
         inkscape:transform-center-y="-10.759119"
         transform="matrix(1.0037301,0.26894866,-0.26894866,1.0037301,-11.723276,36.98688)"
         inkscape:label="t1" /></g></g><g
     inkscape:groupmode="layer"
     id="layer2"
     inkscape:label="Text"
     transform="matrix(0.94165261,0,0,1.1448413,11.868483,-15.650419)"
     style="display:none"><g
       id="g1"><text
         xml:space="preserve"
         id="text1-1"
         style="font-size:192px;text-align:start;letter-spacing:0px;writing-mode:lr-tb;direction:ltr;white-space:pre;shape-inside:url(#rect1-2);display:inline;fill:#000000;fill-opacity:0.244387;filter:url(#filter1)"
         transform="matrix(0.3222502,0,0,0.28590524,-22.36964,-4.3938386)"
         inkscape:label="text1-1"><tspan
           x="162.87109"
           y="380.17455"
           id="tspan3"><tspan
             style="font-weight:bold;font-family:'LT Flode Neue';-inkscape-font-specification:'LT Flode Neue Bold'"
             id="tspan1">F</tspan></tspan></text><text
         xml:space="preserve"
         id="text1"
         style="font-size:192px;text-align:start;letter-spacing:0px;writing-mode:lr-tb;direction:ltr;white-space:pre;shape-inside:url(#rect1);display:inline;fill:#ffffff;fill-opacity:1"
         transform="matrix(0.3222502,0,0,0.28590524,-23.103212,-5.0244126)"><tspan
           x="162.87109"
           y="380.17455"
           id="tspan5"><tspan
             style="font-weight:bold;font-family:'LT Flode Neue';-inkscape-font-specification:'LT Flode Neue Bold'"
             id="tspan4">F</tspan></tspan></text></g><g
       id="g5"
       transform="matrix(0.6579231,0,0,0.6579231,42.860339,11.589109)"><text
         xml:space="preserve"
         id="text3"
         style="font-size:192px;text-align:start;letter-spacing:0px;writing-mode:lr-tb;direction:ltr;white-space:pre;shape-inside:url(#rect5);display:inline;fill:#000000;fill-opacity:0.244387;filter:url(#filter1)"
         transform="matrix(0.3222502,0,0,0.28590524,-22.36964,-4.3938386)"
         inkscape:label="text1-1"><tspan
           x="162.87109"
           y="380.17455"
           id="tspan7"><tspan
             style="font-weight:bold;font-family:'LT Flode Neue';-inkscape-font-specification:'LT Flode Neue Bold'"
             id="tspan6">2</tspan></tspan></text><text
         xml:space="preserve"
         id="text5"
         style="font-size:192px;text-align:start;letter-spacing:0px;writing-mode:lr-tb;direction:ltr;white-space:pre;shape-inside:url(#rect6);display:inline;fill:#ffffff;fill-opacity:1"
         transform="matrix(0.3222502,0,0,0.28590524,-23.103212,-5.0244126)"
         sodipodi:insensitive="true"><tspan
           x="162.87109"
           y="380.17455"
           id="tspan9"><tspan
             style="font-weight:bold;font-family:'LT Flode Neue';-inkscape-font-specification:'LT Flode Neue Bold'"
             id="tspan8">2</tspan></tspan></text></g></g><g
     inkscape:groupmode="layer"
     id="g17"
     inkscape:label="TextPath"
     transform="matrix(0.94165261,0,0,1.1448413,11.868483,-15.650419)"
     inkscape:highlight-color="#8475ed"
     style="display:inline"><g
       id="g12"><path
         style="font-weight:bold;font-size:192px;font-family:'LT Flode Neue';-inkscape-font-specification:'LT Flode Neue Bold';letter-spacing:0px;white-space:pre;fill-opacity:0.244387;filter:url(#filter1)"
         d="m 202.23109,245.77455 c -9.984,0 -22.656,2.496 -30.72,8.64 v 125.76 c 10.752,0 21.696,-4.224 30.72,-10.176 v -44.928 h 45.888 c 5.952,-5.952 8.256,-13.824 9.216,-22.08 h -55.104 v -33.984 h 51.456 c 6.528,-6.144 9.216,-14.4 10.176,-23.232 z"
         id="text4"
         inkscape:label="text1-1"
         transform="matrix(0.3222502,0,0,0.28590524,-22.36964,-4.3938386)"
         aria-label="F" /><path
         style="font-weight:bold;font-size:192px;font-family:'LT Flode Neue';-inkscape-font-specification:'LT Flode Neue Bold';letter-spacing:0px;white-space:pre;fill:#ffffff"
         d="m 202.23109,245.77455 c -9.984,0 -22.656,2.496 -30.72,8.64 v 125.76 c 10.752,0 21.696,-4.224 30.72,-10.176 v -44.928 h 45.888 c 5.952,-5.952 8.256,-13.824 9.216,-22.08 h -55.104 v -33.984 h 51.456 c 6.528,-6.144 9.216,-14.4 10.176,-23.232 z"
         id="text12"
         transform="matrix(0.3222502,0,0,0.28590524,-23.103212,-5.0244126)"
         aria-label="F" /></g><g
       id="g16"
       transform="matrix(0.6579231,0,0,0.6579231,42.860339,11.589109)"><path
         style="font-weight:bold;font-size:192px;font-family:'LT Flode Neue';-inkscape-font-specification:'LT Flode Neue Bold';letter-spacing:0px;white-space:pre;fill-opacity:0.244387;filter:url(#filter1)"
         d="m 245.23909,283.40655 c 0,28.992 -71.04,23.808 -71.04,84.48 v 12.288 h 93.312 c 6.336,-5.568 10.944,-13.44 12.288,-23.04 h -73.344 c 0,-33.6 69.504,-29.376 69.504,-75.072 0,-26.88 -22.656,-38.976 -48.192,-38.976 -18.816,0 -44.928,7.68 -51.84,26.688 1.344,10.56 10.752,16.896 19.392,19.2 0,-13.248 13.056,-23.04 27.264,-23.04 11.136,0 22.656,4.992 22.656,17.472 z"
         id="text14"
         inkscape:label="text1-1"
         transform="matrix(0.3222502,0,0,0.28590524,-22.36964,-4.3938386)"
         aria-label="2" /><path
         style="font-weight:bold;font-size:192px;font-family:'LT Flode Neue';-inkscape-font-specification:'LT Flode Neue Bold';letter-spacing:0px;white-space:pre;fill:#ffffff"
         d="m 245.23909,283.40655 c 0,28.992 -71.04,23.808 -71.04,84.48 v 12.288 h 93.312 c 6.336,-5.568 10.944,-13.44 12.288,-23.04 h -73.344 c 0,-33.6 69.504,-29.376 69.504,-75.072 0,-26.88 -22.656,-38.976 -48.192,-38.976 -18.816,0 -44.928,7.68 -51.84,26.688 1.344,10.56 10.752,16.896 19.392,19.2 0,-13.248 13.056,-23.04 27.264,-23.04 11.136,0 22.656,4.992 22.656,17.472 z"
         id="text16"
         transform="matrix(0.3222502,0,0,0.28590524,-23.103212,-5.0244126)"
         aria-label="2" /></g></g></svg>
